ISO-10303-21;
HEADER;
/* Generated by software containing ST-Developer
 * from STEP Tools, Inc. (www.steptools.com) 
 */
/* OPTION: using custom renumber hook */

FILE_DESCRIPTION(
/* description */ ('STEP AP242 Edition 2',
'CAx-IF Rec.Pracs.---Representation and Presentation of Product Manufa
cturing Information (PMI)---4.0---2014-10-13',
'CAx-IF Rec.Pracs.---3D Tessellated Geometry---0.4---2014-09-14','2;1',
'CAx-IF Rec.Pracs.---User Defined Attributes---1.5---2016-08-15'),
/* implementation_level */ '2;1');

FILE_NAME(
/* name */ 'Lid',
/* time_stamp */ '2026-08-31T06:30:23Z',
/* author */ (''),
/* organization */ (''),
/* preprocessor_version */ 'ST-DEVELOPER v20',
/* originating_system */ 'ONSHAPE BY PTC INC, 1.220',
/* authorisation */ '  ');

FILE_SCHEMA (('AP242_MANAGED_MODEL_BASED_3D_ENGINEERING_MIM_LF { 1 0 10303 442 3 1 4 }'));
ENDSEC;

DATA;
#10=SHAPE_REPRESENTATION_RELATIONSHIP('','',#384,#11);
#11=ADVANCED_BREP_SHAPE_REPRESENTATION('',(#382),#618);
#12=CYLINDRICAL_SURFACE('',#400,0.15494);
#13=CYLINDRICAL_SURFACE('',#401,0.15494);
#14=CYLINDRICAL_SURFACE('',#404,0.00254);
#15=CYLINDRICAL_SURFACE('',#405,0.00254);
#16=CYLINDRICAL_SURFACE('',#406,0.001905);
#17=CYLINDRICAL_SURFACE('',#416,0.00635);
#18=LINE('',#526,#53);
#19=LINE('',#529,#54);
#20=LINE('',#531,#55);
#21=LINE('',#533,#56);
#22=LINE('',#535,#57);
#23=LINE('',#537,#58);
#24=LINE('',#543,#59);
#25=LINE('',#544,#60);
#26=LINE('',#547,#61);
#27=LINE('',#549,#62);
#28=LINE('',#551,#63);
#29=LINE('',#558,#64);
#30=LINE('',#560,#65);
#31=LINE('',#562,#66);
#32=LINE('',#571,#67);
#33=LINE('',#574,#68);
#34=LINE('',#576,#69);
#35=LINE('',#578,#70);
#36=LINE('',#580,#71);
#37=LINE('',#581,#72);
#38=LINE('',#583,#73);
#39=LINE('',#585,#74);
#40=LINE('',#587,#75);
#41=LINE('',#588,#76);
#42=LINE('',#590,#77);
#43=LINE('',#592,#78);
#44=LINE('',#598,#79);
#45=LINE('',#600,#80);
#46=LINE('',#602,#81);
#47=LINE('',#604,#82);
#48=LINE('',#606,#83);
#49=LINE('',#609,#84);
#50=LINE('',#610,#85);
#51=LINE('',#612,#86);
#52=LINE('',#614,#87);
#53=VECTOR('',#429,1.);
#54=VECTOR('',#430,1.);
#55=VECTOR('',#431,1.);
#56=VECTOR('',#432,1.);
#57=VECTOR('',#433,1.);
#58=VECTOR('',#434,1.);
#59=VECTOR('',#439,1.);
#60=VECTOR('',#440,1.);
#61=VECTOR('',#441,1.);
#62=VECTOR('',#442,1.);
#63=VECTOR('',#443,1.);
#64=VECTOR('',#450,1.);
#65=VECTOR('',#451,1.);
#66=VECTOR('',#452,1.);
#67=VECTOR('',#461,1.);
#68=VECTOR('',#462,1.);
#69=VECTOR('',#463,1.);
#70=VECTOR('',#464,1.);
#71=VECTOR('',#467,1.);
#72=VECTOR('',#468,1.);
#73=VECTOR('',#471,1.);
#74=VECTOR('',#474,1.);
#75=VECTOR('',#477,1.);
#76=VECTOR('',#478,1.);
#77=VECTOR('',#479,1.);
#78=VECTOR('',#480,1.);
#79=VECTOR('',#491,1.);
#80=VECTOR('',#492,1.);
#81=VECTOR('',#495,1.);
#82=VECTOR('',#496,1.);
#83=VECTOR('',#499,1.);
#84=VECTOR('',#504,1.);
#85=VECTOR('',#505,1.);
#86=VECTOR('',#508,1.);
#87=VECTOR('',#511,1.);
#88=ORIENTED_EDGE('',*,*,#182,.F.);
#89=ORIENTED_EDGE('',*,*,#183,.F.);
#90=ORIENTED_EDGE('',*,*,#184,.F.);
#91=ORIENTED_EDGE('',*,*,#185,.F.);
#92=ORIENTED_EDGE('',*,*,#186,.F.);
#93=ORIENTED_EDGE('',*,*,#187,.T.);
#94=ORIENTED_EDGE('',*,*,#188,.F.);
#95=ORIENTED_EDGE('',*,*,#189,.F.);
#96=ORIENTED_EDGE('',*,*,#190,.F.);
#97=ORIENTED_EDGE('',*,*,#191,.F.);
#98=ORIENTED_EDGE('',*,*,#192,.T.);
#99=ORIENTED_EDGE('',*,*,#193,.T.);
#100=ORIENTED_EDGE('',*,*,#194,.T.);
#101=ORIENTED_EDGE('',*,*,#195,.F.);
#102=ORIENTED_EDGE('',*,*,#196,.T.);
#103=ORIENTED_EDGE('',*,*,#197,.T.);
#104=ORIENTED_EDGE('',*,*,#198,.F.);
#105=ORIENTED_EDGE('',*,*,#199,.T.);
#106=ORIENTED_EDGE('',*,*,#200,.F.);
#107=ORIENTED_EDGE('',*,*,#201,.T.);
#108=ORIENTED_EDGE('',*,*,#202,.T.);
#109=ORIENTED_EDGE('',*,*,#203,.F.);
#110=ORIENTED_EDGE('',*,*,#204,.F.);
#111=ORIENTED_EDGE('',*,*,#205,.T.);
#112=ORIENTED_EDGE('',*,*,#206,.T.);
#113=ORIENTED_EDGE('',*,*,#207,.T.);
#114=ORIENTED_EDGE('',*,*,#208,.F.);
#115=ORIENTED_EDGE('',*,*,#209,.T.);
#116=ORIENTED_EDGE('',*,*,#210,.T.);
#117=ORIENTED_EDGE('',*,*,#211,.F.);
#118=ORIENTED_EDGE('',*,*,#200,.T.);
#119=ORIENTED_EDGE('',*,*,#212,.F.);
#120=ORIENTED_EDGE('',*,*,#192,.F.);
#121=ORIENTED_EDGE('',*,*,#213,.T.);
#122=ORIENTED_EDGE('',*,*,#204,.T.);
#123=ORIENTED_EDGE('',*,*,#214,.F.);
#124=ORIENTED_EDGE('',*,*,#193,.F.);
#125=ORIENTED_EDGE('',*,*,#212,.T.);
#126=ORIENTED_EDGE('',*,*,#203,.T.);
#127=ORIENTED_EDGE('',*,*,#215,.F.);
#128=ORIENTED_EDGE('',*,*,#194,.F.);
#129=ORIENTED_EDGE('',*,*,#214,.T.);
#130=ORIENTED_EDGE('',*,*,#202,.F.);
#131=ORIENTED_EDGE('',*,*,#216,.F.);
#132=ORIENTED_EDGE('',*,*,#190,.T.);
#133=ORIENTED_EDGE('',*,*,#217,.F.);
#134=ORIENTED_EDGE('',*,*,#218,.T.);
#135=ORIENTED_EDGE('',*,*,#219,.T.);
#136=ORIENTED_EDGE('',*,*,#186,.T.);
#137=ORIENTED_EDGE('',*,*,#215,.T.);
#138=ORIENTED_EDGE('',*,*,#185,.T.);
#139=ORIENTED_EDGE('',*,*,#205,.F.);
#140=ORIENTED_EDGE('',*,*,#184,.T.);
#141=ORIENTED_EDGE('',*,*,#206,.F.);
#142=ORIENTED_EDGE('',*,*,#183,.T.);
#143=ORIENTED_EDGE('',*,*,#207,.F.);
#144=ORIENTED_EDGE('',*,*,#201,.F.);
#145=ORIENTED_EDGE('',*,*,#213,.F.);
#146=ORIENTED_EDGE('',*,*,#191,.T.);
#147=ORIENTED_EDGE('',*,*,#216,.T.);
#148=ORIENTED_EDGE('',*,*,#189,.T.);
#149=ORIENTED_EDGE('',*,*,#220,.F.);
#150=ORIENTED_EDGE('',*,*,#221,.F.);
#151=ORIENTED_EDGE('',*,*,#217,.T.);
#152=ORIENTED_EDGE('',*,*,#188,.T.);
#153=ORIENTED_EDGE('',*,*,#222,.F.);
#154=ORIENTED_EDGE('',*,*,#223,.F.);
#155=ORIENTED_EDGE('',*,*,#220,.T.);
#156=ORIENTED_EDGE('',*,*,#187,.F.);
#157=ORIENTED_EDGE('',*,*,#219,.F.);
#158=ORIENTED_EDGE('',*,*,#224,.T.);
#159=ORIENTED_EDGE('',*,*,#222,.T.);
#160=ORIENTED_EDGE('',*,*,#218,.F.);
#161=ORIENTED_EDGE('',*,*,#221,.T.);
#162=ORIENTED_EDGE('',*,*,#223,.T.);
#163=ORIENTED_EDGE('',*,*,#224,.F.);
#164=ORIENTED_EDGE('',*,*,#208,.T.);
#165=ORIENTED_EDGE('',*,*,#225,.T.);
#166=ORIENTED_EDGE('',*,*,#196,.F.);
#167=ORIENTED_EDGE('',*,*,#226,.F.);
#168=ORIENTED_EDGE('',*,*,#226,.T.);
#169=ORIENTED_EDGE('',*,*,#195,.T.);
#170=ORIENTED_EDGE('',*,*,#227,.F.);
#171=ORIENTED_EDGE('',*,*,#209,.F.);
#172=ORIENTED_EDGE('',*,*,#227,.T.);
#173=ORIENTED_EDGE('',*,*,#198,.T.);
#174=ORIENTED_EDGE('',*,*,#228,.F.);
#175=ORIENTED_EDGE('',*,*,#210,.F.);
#176=ORIENTED_EDGE('',*,*,#211,.T.);
#177=ORIENTED_EDGE('',*,*,#228,.T.);
#178=ORIENTED_EDGE('',*,*,#197,.F.);
#179=ORIENTED_EDGE('',*,*,#225,.F.);
#180=ORIENTED_EDGE('',*,*,#182,.T.);
#181=ORIENTED_EDGE('',*,*,#199,.F.);
#182=EDGE_CURVE('',#229,#229,#263,.T.);
#183=EDGE_CURVE('',#230,#230,#264,.T.);
#184=EDGE_CURVE('',#231,#231,#265,.T.);
#185=EDGE_CURVE('',#232,#232,#266,.T.);
#186=EDGE_CURVE('',#233,#234,#18,.T.);
#187=EDGE_CURVE('',#233,#235,#19,.T.);
#188=EDGE_CURVE('',#236,#235,#20,.T.);
#189=EDGE_CURVE('',#237,#236,#21,.T.);
#190=EDGE_CURVE('',#238,#237,#22,.T.);
#191=EDGE_CURVE('',#239,#238,#23,.T.);
#192=EDGE_CURVE('',#239,#240,#267,.T.);
#193=EDGE_CURVE('',#240,#241,#268,.T.);
#194=EDGE_CURVE('',#241,#234,#24,.T.);
#195=EDGE_CURVE('',#242,#243,#25,.T.);
#196=EDGE_CURVE('',#242,#244,#26,.T.);
#197=EDGE_CURVE('',#244,#245,#27,.T.);
#198=EDGE_CURVE('',#243,#245,#28,.T.);
#199=EDGE_CURVE('',#246,#246,#269,.T.);
#200=EDGE_CURVE('',#247,#248,#270,.T.);
#201=EDGE_CURVE('',#247,#249,#29,.T.);
#202=EDGE_CURVE('',#249,#250,#30,.T.);
#203=EDGE_CURVE('',#251,#250,#31,.T.);
#204=EDGE_CURVE('',#248,#251,#271,.T.);
#205=EDGE_CURVE('',#252,#252,#272,.T.);
#206=EDGE_CURVE('',#253,#253,#273,.T.);
#207=EDGE_CURVE('',#254,#254,#274,.T.);
#208=EDGE_CURVE('',#255,#256,#32,.T.);
#209=EDGE_CURVE('',#255,#257,#33,.T.);
#210=EDGE_CURVE('',#257,#258,#34,.T.);
#211=EDGE_CURVE('',#256,#258,#35,.T.);
#212=EDGE_CURVE('',#240,#248,#36,.T.);
#213=EDGE_CURVE('',#239,#247,#37,.T.);
#214=EDGE_CURVE('',#241,#251,#38,.T.);
#215=EDGE_CURVE('',#234,#250,#39,.T.);
#216=EDGE_CURVE('',#238,#249,#40,.T.);
#217=EDGE_CURVE('',#259,#237,#41,.T.);
#218=EDGE_CURVE('',#259,#260,#42,.T.);
#219=EDGE_CURVE('',#260,#233,#43,.T.);
#220=EDGE_CURVE('',#261,#236,#44,.T.);
#221=EDGE_CURVE('',#259,#261,#45,.T.);
#222=EDGE_CURVE('',#262,#235,#46,.T.);
#223=EDGE_CURVE('',#261,#262,#47,.T.);
#224=EDGE_CURVE('',#260,#262,#48,.T.);
#225=EDGE_CURVE('',#256,#244,#49,.T.);
#226=EDGE_CURVE('',#255,#242,#50,.T.);
#227=EDGE_CURVE('',#257,#243,#51,.T.);
#228=EDGE_CURVE('',#258,#245,#52,.T.);
#229=VERTEX_POINT('',#519);
#230=VERTEX_POINT('',#521);
#231=VERTEX_POINT('',#523);
#232=VERTEX_POINT('',#525);
#233=VERTEX_POINT('',#527);
#234=VERTEX_POINT('',#528);
#235=VERTEX_POINT('',#530);
#236=VERTEX_POINT('',#532);
#237=VERTEX_POINT('',#534);
#238=VERTEX_POINT('',#536);
#239=VERTEX_POINT('',#538);
#240=VERTEX_POINT('',#540);
#241=VERTEX_POINT('',#542);
#242=VERTEX_POINT('',#545);
#243=VERTEX_POINT('',#546);
#244=VERTEX_POINT('',#548);
#245=VERTEX_POINT('',#550);
#246=VERTEX_POINT('',#554);
#247=VERTEX_POINT('',#556);
#248=VERTEX_POINT('',#557);
#249=VERTEX_POINT('',#559);
#250=VERTEX_POINT('',#561);
#251=VERTEX_POINT('',#563);
#252=VERTEX_POINT('',#566);
#253=VERTEX_POINT('',#568);
#254=VERTEX_POINT('',#570);
#255=VERTEX_POINT('',#572);
#256=VERTEX_POINT('',#573);
#257=VERTEX_POINT('',#575);
#258=VERTEX_POINT('',#577);
#259=VERTEX_POINT('',#589);
#260=VERTEX_POINT('',#591);
#261=VERTEX_POINT('',#599);
#262=VERTEX_POINT('',#603);
#263=CIRCLE('',#387,0.00635);
#264=CIRCLE('',#388,0.001905);
#265=CIRCLE('',#389,0.00254);
#266=CIRCLE('',#390,0.00254);
#267=CIRCLE('',#391,0.15494);
#268=CIRCLE('',#392,0.15494);
#269=CIRCLE('',#394,0.00635);
#270=CIRCLE('',#395,0.15494);
#271=CIRCLE('',#396,0.15494);
#272=CIRCLE('',#397,0.00254);
#273=CIRCLE('',#398,0.00254);
#274=CIRCLE('',#399,0.001905);
#275=EDGE_LOOP('',(#88));
#276=EDGE_LOOP('',(#89));
#277=EDGE_LOOP('',(#90));
#278=EDGE_LOOP('',(#91));
#279=EDGE_LOOP('',(#92,#93,#94,#95,#96,#97,#98,#99,#100));
#280=EDGE_LOOP('',(#101,#102,#103,#104));
#281=EDGE_LOOP('',(#105));
#282=EDGE_LOOP('',(#106,#107,#108,#109,#110));
#283=EDGE_LOOP('',(#111));
#284=EDGE_LOOP('',(#112));
#285=EDGE_LOOP('',(#113));
#286=EDGE_LOOP('',(#114,#115,#116,#117));
#287=EDGE_LOOP('',(#118,#119,#120,#121));
#288=EDGE_LOOP('',(#122,#123,#124,#125));
#289=EDGE_LOOP('',(#126,#127,#128,#129));
#290=EDGE_LOOP('',(#130,#131,#132,#133,#134,#135,#136,#137));
#291=EDGE_LOOP('',(#138));
#292=EDGE_LOOP('',(#139));
#293=EDGE_LOOP('',(#140));
#294=EDGE_LOOP('',(#141));
#295=EDGE_LOOP('',(#142));
#296=EDGE_LOOP('',(#143));
#297=EDGE_LOOP('',(#144,#145,#146,#147));
#298=EDGE_LOOP('',(#148,#149,#150,#151));
#299=EDGE_LOOP('',(#152,#153,#154,#155));
#300=EDGE_LOOP('',(#156,#157,#158,#159));
#301=EDGE_LOOP('',(#160,#161,#162,#163));
#302=EDGE_LOOP('',(#164,#165,#166,#167));
#303=EDGE_LOOP('',(#168,#169,#170,#171));
#304=EDGE_LOOP('',(#172,#173,#174,#175));
#305=EDGE_LOOP('',(#176,#177,#178,#179));
#306=EDGE_LOOP('',(#180));
#307=EDGE_LOOP('',(#181));
#308=FACE_BOUND('',#275,.T.);
#309=FACE_BOUND('',#276,.T.);
#310=FACE_BOUND('',#277,.T.);
#311=FACE_BOUND('',#278,.T.);
#312=FACE_BOUND('',#279,.T.);
#313=FACE_BOUND('',#280,.T.);
#314=FACE_BOUND('',#281,.T.);
#315=FACE_BOUND('',#282,.T.);
#316=FACE_BOUND('',#283,.T.);
#317=FACE_BOUND('',#284,.T.);
#318=FACE_BOUND('',#285,.T.);
#319=FACE_BOUND('',#286,.T.);
#320=FACE_BOUND('',#287,.T.);
#321=FACE_BOUND('',#288,.T.);
#322=FACE_BOUND('',#289,.T.);
#323=FACE_BOUND('',#290,.T.);
#324=FACE_BOUND('',#291,.T.);
#325=FACE_BOUND('',#292,.T.);
#326=FACE_BOUND('',#293,.T.);
#327=FACE_BOUND('',#294,.T.);
#328=FACE_BOUND('',#295,.T.);
#329=FACE_BOUND('',#296,.T.);
#330=FACE_BOUND('',#297,.T.);
#331=FACE_BOUND('',#298,.T.);
#332=FACE_BOUND('',#299,.T.);
#333=FACE_BOUND('',#300,.T.);
#334=FACE_BOUND('',#301,.T.);
#335=FACE_BOUND('',#302,.T.);
#336=FACE_BOUND('',#303,.T.);
#337=FACE_BOUND('',#304,.T.);
#338=FACE_BOUND('',#305,.T.);
#339=FACE_BOUND('',#306,.T.);
#340=FACE_BOUND('',#307,.T.);
#341=PLANE('',#386);
#342=PLANE('',#393);
#343=PLANE('',#402);
#344=PLANE('',#403);
#345=PLANE('',#407);
#346=PLANE('',#408);
#347=PLANE('',#409);
#348=PLANE('',#410);
#349=PLANE('',#411);
#350=PLANE('',#412);
#351=PLANE('',#413);
#352=PLANE('',#414);
#353=PLANE('',#415);
#354=ADVANCED_FACE('',(#308,#309,#310,#311,#312,#313),#341,.T.);
#355=ADVANCED_FACE('',(#314,#315,#316,#317,#318,#319),#342,.F.);
#356=ADVANCED_FACE('',(#320),#12,.T.);
#357=ADVANCED_FACE('',(#321),#13,.T.);
#358=ADVANCED_FACE('',(#322),#343,.F.);
#359=ADVANCED_FACE('',(#323),#344,.T.);
#360=ADVANCED_FACE('',(#324,#325),#14,.F.);
#361=ADVANCED_FACE('',(#326,#327),#15,.F.);
#362=ADVANCED_FACE('',(#328,#329),#16,.F.);
#363=ADVANCED_FACE('',(#330),#345,.T.);
#364=ADVANCED_FACE('',(#331),#346,.F.);
#365=ADVANCED_FACE('',(#332),#347,.F.);
#366=ADVANCED_FACE('',(#333),#348,.T.);
#367=ADVANCED_FACE('',(#334),#349,.T.);
#368=ADVANCED_FACE('',(#335),#350,.T.);
#369=ADVANCED_FACE('',(#336),#351,.F.);
#370=ADVANCED_FACE('',(#337),#352,.F.);
#371=ADVANCED_FACE('',(#338),#353,.T.);
#372=ADVANCED_FACE('',(#339,#340),#17,.F.);
#373=CLOSED_SHELL('',(#354,#355,#356,#357,#358,#359,#360,#361,#362,#363,
#364,#365,#366,#367,#368,#369,#370,#371,#372));
#374=STYLED_ITEM('',(#375),#382);
#375=PRESENTATION_STYLE_ASSIGNMENT((#376));
#376=SURFACE_STYLE_USAGE(.BOTH.,#377);
#377=SURFACE_SIDE_STYLE('',(#378));
#378=SURFACE_STYLE_FILL_AREA(#379);
#379=FILL_AREA_STYLE('',(#380));
#380=FILL_AREA_STYLE_COLOUR('',#381);
#381=COLOUR_RGB('',1.,0.0117647058823529,0.0745098039215686);
#382=MANIFOLD_SOLID_BREP('Part 1',#373);
#383=SHAPE_DEFINITION_REPRESENTATION(#623,#384);
#384=SHAPE_REPRESENTATION('Part 1',(#385),#618);
#385=AXIS2_PLACEMENT_3D('',#516,#417,#418);
#386=AXIS2_PLACEMENT_3D('',#517,#419,#420);
#387=AXIS2_PLACEMENT_3D('',#518,#421,#422);
#388=AXIS2_PLACEMENT_3D('',#520,#423,#424);
#389=AXIS2_PLACEMENT_3D('',#522,#425,#426);
#390=AXIS2_PLACEMENT_3D('',#524,#427,#428);
#391=AXIS2_PLACEMENT_3D('',#539,#435,#436);
#392=AXIS2_PLACEMENT_3D('',#541,#437,#438);
#393=AXIS2_PLACEMENT_3D('',#552,#444,#445);
#394=AXIS2_PLACEMENT_3D('',#553,#446,#447);
#395=AXIS2_PLACEMENT_3D('',#555,#448,#449);
#396=AXIS2_PLACEMENT_3D('',#564,#453,#454);
#397=AXIS2_PLACEMENT_3D('',#565,#455,#456);
#398=AXIS2_PLACEMENT_3D('',#567,#457,#458);
#399=AXIS2_PLACEMENT_3D('',#569,#459,#460);
#400=AXIS2_PLACEMENT_3D('',#579,#465,#466);
#401=AXIS2_PLACEMENT_3D('',#582,#469,#470);
#402=AXIS2_PLACEMENT_3D('',#584,#472,#473);
#403=AXIS2_PLACEMENT_3D('',#586,#475,#476);
#404=AXIS2_PLACEMENT_3D('',#593,#481,#482);
#405=AXIS2_PLACEMENT_3D('',#594,#483,#484);
#406=AXIS2_PLACEMENT_3D('',#595,#485,#486);
#407=AXIS2_PLACEMENT_3D('',#596,#487,#488);
#408=AXIS2_PLACEMENT_3D('',#597,#489,#490);
#409=AXIS2_PLACEMENT_3D('',#601,#493,#494);
#410=AXIS2_PLACEMENT_3D('',#605,#497,#498);
#411=AXIS2_PLACEMENT_3D('',#607,#500,#501);
#412=AXIS2_PLACEMENT_3D('',#608,#502,#503);
#413=AXIS2_PLACEMENT_3D('',#611,#506,#507);
#414=AXIS2_PLACEMENT_3D('',#613,#509,#510);
#415=AXIS2_PLACEMENT_3D('',#615,#512,#513);
#416=AXIS2_PLACEMENT_3D('',#616,#514,#515);
#417=DIRECTION('',(0.,0.,1.));
#418=DIRECTION('',(1.,0.,0.));
#419=DIRECTION('',(0.,0.,1.));
#420=DIRECTION('',(1.,0.,0.));
#421=DIRECTION('',(0.,0.,1.));
#422=DIRECTION('',(1.,0.,0.));
#423=DIRECTION('',(0.,0.,1.));
#424=DIRECTION('',(1.,0.,0.));
#425=DIRECTION('',(0.,0.,1.));
#426=DIRECTION('',(1.,0.,0.));
#427=DIRECTION('',(0.,0.,1.));
#428=DIRECTION('',(1.,0.,0.));
#429=DIRECTION('',(-1.,0.,0.));
#430=DIRECTION('',(-1.95131999547447E-16,1.,0.));
#431=DIRECTION('',(-1.,0.,0.));
#432=DIRECTION('',(0.,1.,0.));
#433=DIRECTION('',(-1.,0.,0.));
#434=DIRECTION('',(1.79137573355033E-16,-1.,0.));
#435=DIRECTION('',(0.,0.,1.));
#436=DIRECTION('',(1.,0.,0.));
#437=DIRECTION('',(0.,0.,1.));
#438=DIRECTION('',(1.,0.,0.));
#439=DIRECTION('',(1.79137573355033E-16,-1.,0.));
#440=DIRECTION('',(6.82961998416066E-17,1.,0.));
#441=DIRECTION('',(-1.,-1.36592399683213E-16,0.));
#442=DIRECTION('',(6.82961998416066E-17,1.,0.));
#443=DIRECTION('',(-1.,0.,0.));
#444=DIRECTION('',(0.,0.,1.));
#445=DIRECTION('',(1.,0.,0.));
#446=DIRECTION('',(0.,0.,1.));
#447=DIRECTION('',(1.,0.,0.));
#448=DIRECTION('',(0.,0.,1.));
#449=DIRECTION('',(1.,0.,0.));
#450=DIRECTION('',(1.79137573355033E-16,-1.,0.));
#451=DIRECTION('',(-1.,0.,0.));
#452=DIRECTION('',(1.79137573355033E-16,-1.,0.));
#453=DIRECTION('',(0.,0.,1.));
#454=DIRECTION('',(1.,0.,0.));
#455=DIRECTION('',(0.,0.,1.));
#456=DIRECTION('',(1.,0.,0.));
#457=DIRECTION('',(0.,0.,1.));
#458=DIRECTION('',(1.,0.,0.));
#459=DIRECTION('',(0.,0.,1.));
#460=DIRECTION('',(1.,0.,0.));
#461=DIRECTION('',(-1.,-1.36592399683213E-16,0.));
#462=DIRECTION('',(6.82961998416066E-17,1.,0.));
#463=DIRECTION('',(-1.,0.,0.));
#464=DIRECTION('',(6.82961998416066E-17,1.,0.));
#465=DIRECTION('',(0.,0.,-1.));
#466=DIRECTION('',(-1.,0.,0.));
#467=DIRECTION('',(0.,0.,-1.));
#468=DIRECTION('',(0.,0.,-1.));
#469=DIRECTION('',(0.,0.,-1.));
#470=DIRECTION('',(-1.,0.,0.));
#471=DIRECTION('',(0.,0.,-1.));
#472=DIRECTION('',(1.,1.79137573355033E-16,0.));
#473=DIRECTION('',(-1.79137573355033E-16,1.,0.));
#474=DIRECTION('',(0.,0.,-1.));
#475=DIRECTION('',(0.,-1.,0.));
#476=DIRECTION('',(0.,0.,-1.));
#477=DIRECTION('',(0.,0.,-1.));
#478=DIRECTION('',(0.,0.,-1.));
#479=DIRECTION('',(-1.,0.,0.));
#480=DIRECTION('',(0.,0.,-1.));
#481=DIRECTION('',(0.,0.,-1.));
#482=DIRECTION('',(-1.,0.,0.));
#483=DIRECTION('',(0.,0.,-1.));
#484=DIRECTION('',(-1.,0.,0.));
#485=DIRECTION('',(0.,0.,-1.));
#486=DIRECTION('',(-1.,0.,0.));
#487=DIRECTION('',(1.,1.79137573355033E-16,0.));
#488=DIRECTION('',(-1.79137573355033E-16,1.,0.));
#489=DIRECTION('',(-1.,0.,0.));
#490=DIRECTION('',(0.,0.,1.));
#491=DIRECTION('',(0.,0.,-1.));
#492=DIRECTION('',(0.,1.,0.));
#493=DIRECTION('',(0.,-1.,0.));
#494=DIRECTION('',(0.,0.,-1.));
#495=DIRECTION('',(0.,0.,-1.));
#496=DIRECTION('',(-1.,0.,0.));
#497=DIRECTION('',(-1.,-1.95131999547447E-16,0.));
#498=DIRECTION('',(1.95131999547447E-16,-1.,0.));
#499=DIRECTION('',(-1.95131999547447E-16,1.,0.));
#500=DIRECTION('',(0.,0.,1.));
#501=DIRECTION('',(1.,0.,0.));
#502=DIRECTION('',(-1.36592399683213E-16,1.,0.));
#503=DIRECTION('',(-1.,-1.36592399683213E-16,0.));
#504=DIRECTION('',(0.,0.,1.));
#505=DIRECTION('',(0.,0.,1.));
#506=DIRECTION('',(1.,-6.82961998416066E-17,0.));
#507=DIRECTION('',(6.82961998416066E-17,1.,0.));
#508=DIRECTION('',(0.,0.,1.));
#509=DIRECTION('',(0.,1.,0.));
#510=DIRECTION('',(0.,0.,1.));
#511=DIRECTION('',(0.,0.,1.));
#512=DIRECTION('',(1.,-6.82961998416066E-17,0.));
#513=DIRECTION('',(6.82961998416066E-17,1.,0.));
#514=DIRECTION('',(0.,0.,1.));
#515=DIRECTION('',(1.,0.,0.));
#516=CARTESIAN_POINT('',(0.,0.,0.));
#517=CARTESIAN_POINT('',(-1.38777878078145E-17,0.0219946000842248,0.00254));
#518=CARTESIAN_POINT('',(0.0383799823655918,-0.0836426761739971,0.00254));
#519=CARTESIAN_POINT('',(0.0447299823655918,-0.0836426761739971,0.00254));
#520=CARTESIAN_POINT('',(1.11022302462516E-16,0.160897180438041,0.00254));
#521=CARTESIAN_POINT('',(0.00190500000000011,0.160897180438041,0.00254));
#522=CARTESIAN_POINT('',(0.0735065486936665,0.0320109797217861,0.00254));
#523=CARTESIAN_POINT('',(0.0760465486936665,0.0320109797217861,0.00254));
#524=CARTESIAN_POINT('',(-0.0735923799675199,0.0320109797217861,0.00254));
#525=CARTESIAN_POINT('',(-0.0710523799675199,0.0320109797217861,0.00254));
#526=CARTESIAN_POINT('',(0.,-0.122929020278214,0.00254));
#527=CARTESIAN_POINT('',(-0.01778,-0.122929020278214,0.00254));
#528=CARTESIAN_POINT('',(-0.07874,-0.122929020278214,0.00254));
#529=CARTESIAN_POINT('',(-0.01778,-0.114039020278214,0.00254));
#530=CARTESIAN_POINT('',(-0.01778,-0.105149020278214,0.00254));
#531=CARTESIAN_POINT('',(-0.00889,-0.105149020278214,0.00254));
#532=CARTESIAN_POINT('',(-3.46944695195361E-18,-0.105149020278214,0.00254));
#533=CARTESIAN_POINT('',(0.,-0.114039020278214,0.00254));
#534=CARTESIAN_POINT('',(-1.7347234759768E-18,-0.122929020278214,0.00254));
#535=CARTESIAN_POINT('',(0.,-0.122929020278214,0.00254));
#536=CARTESIAN_POINT('',(0.07874,-0.122929020278214,0.00254));
#537=CARTESIAN_POINT('',(0.07874,-0.0454590202782138,0.00254));
#538=CARTESIAN_POINT('',(0.07874,0.0320109797217862,0.00254));
#539=CARTESIAN_POINT('',(-0.0762,0.0320109797217861,0.00254));
#540=CARTESIAN_POINT('',(5.55111512312578E-17,0.166918220446664,0.00254));
#541=CARTESIAN_POINT('',(0.0762,0.0320109797217861,0.00254));
#542=CARTESIAN_POINT('',(-0.07874,0.0320109797217861,0.00254));
#543=CARTESIAN_POINT('',(-0.07874,-0.0454590202782139,0.00254));
#544=CARTESIAN_POINT('',(0.0254,1.38777878078145E-17,0.00254));
#545=CARTESIAN_POINT('',(0.0254,-0.0508,0.00254));
#546=CARTESIAN_POINT('',(0.0254,0.0508,0.00254));
#547=CARTESIAN_POINT('',(-3.46944695195361E-18,-0.0508,0.00254));
#548=CARTESIAN_POINT('',(-0.0254,-0.0508,0.00254));
#549=CARTESIAN_POINT('',(-0.0254,6.93889390390723E-18,0.00254));
#550=CARTESIAN_POINT('',(-0.0254,0.0508,0.00254));
#551=CARTESIAN_POINT('',(3.46944695195361E-18,0.0508,0.00254));
#552=CARTESIAN_POINT('',(-1.38777878078145E-17,0.0219946000842248,0.));
#553=CARTESIAN_POINT('',(0.0383799823655918,-0.0836426761739971,0.));
#554=CARTESIAN_POINT('',(0.0447299823655918,-0.0836426761739971,0.));
#555=CARTESIAN_POINT('',(-0.0762,0.0320109797217861,0.));
#556=CARTESIAN_POINT('',(0.07874,0.0320109797217862,0.));
#557=CARTESIAN_POINT('',(5.55111512312578E-17,0.166918220446664,0.));
#558=CARTESIAN_POINT('',(0.07874,-0.0454590202782138,0.));
#559=CARTESIAN_POINT('',(0.07874,-0.122929020278214,0.));
#560=CARTESIAN_POINT('',(0.,-0.122929020278214,0.));
#561=CARTESIAN_POINT('',(-0.07874,-0.122929020278214,0.));
#562=CARTESIAN_POINT('',(-0.07874,-0.0454590202782139,0.));
#563=CARTESIAN_POINT('',(-0.07874,0.0320109797217861,0.));
#564=CARTESIAN_POINT('',(0.0762,0.0320109797217861,0.));
#565=CARTESIAN_POINT('',(-0.0735923799675199,0.0320109797217861,0.));
#566=CARTESIAN_POINT('',(-0.0710523799675199,0.0320109797217861,0.));
#567=CARTESIAN_POINT('',(0.0735065486936665,0.0320109797217861,0.));
#568=CARTESIAN_POINT('',(0.0760465486936665,0.0320109797217861,0.));
#569=CARTESIAN_POINT('',(1.11022302462516E-16,0.160897180438041,0.));
#570=CARTESIAN_POINT('',(0.00190500000000011,0.160897180438041,0.));
#571=CARTESIAN_POINT('',(-3.93459869833036E-18,-0.0508,0.));
#572=CARTESIAN_POINT('',(0.0254,-0.0508,0.));
#573=CARTESIAN_POINT('',(-0.0254,-0.0508,0.));
#574=CARTESIAN_POINT('',(0.0254,0.0219946000842248,0.));
#575=CARTESIAN_POINT('',(0.0254,0.0508,0.));
#576=CARTESIAN_POINT('',(-1.38777878078145E-17,0.0508,0.));
#577=CARTESIAN_POINT('',(-0.0254,0.0508,0.));
#578=CARTESIAN_POINT('',(-0.0254,0.0219946000842248,0.));
#579=CARTESIAN_POINT('',(-0.0762,0.0320109797217861,0.00254));
#580=CARTESIAN_POINT('',(5.55111512312578E-17,0.166918220446664,0.00254));
#581=CARTESIAN_POINT('',(0.07874,0.0320109797217862,0.00254));
#582=CARTESIAN_POINT('',(0.0762,0.0320109797217861,0.00254));
#583=CARTESIAN_POINT('',(-0.07874,0.0320109797217861,0.00254));
#584=CARTESIAN_POINT('',(-0.07874,-0.0454590202782139,0.00254));
#585=CARTESIAN_POINT('',(-0.07874,-0.122929020278214,0.00254));
#586=CARTESIAN_POINT('',(0.,-0.122929020278214,0.00254));
#587=CARTESIAN_POINT('',(0.07874,-0.122929020278214,0.00254));
#588=CARTESIAN_POINT('',(0.,-0.122929020278214,0.05334));
#589=CARTESIAN_POINT('',(0.,-0.122929020278214,0.05334));
#590=CARTESIAN_POINT('',(0.,-0.122929020278214,0.05334));
#591=CARTESIAN_POINT('',(-0.01778,-0.122929020278214,0.05334));
#592=CARTESIAN_POINT('',(-0.01778,-0.122929020278214,0.05334));
#593=CARTESIAN_POINT('',(-0.0735923799675199,0.0320109797217861,0.00254));
#594=CARTESIAN_POINT('',(0.0735065486936665,0.0320109797217861,0.00254));
#595=CARTESIAN_POINT('',(1.11022302462516E-16,0.160897180438041,0.00254));
#596=CARTESIAN_POINT('',(0.07874,-0.0454590202782138,0.00254));
#597=CARTESIAN_POINT('',(0.,-0.114039020278214,0.05334));
#598=CARTESIAN_POINT('',(-3.46944695195361E-18,-0.105149020278214,0.05334));
#599=CARTESIAN_POINT('',(-3.46944695195361E-18,-0.105149020278214,0.05334));
#600=CARTESIAN_POINT('',(0.,-0.114039020278214,0.05334));
#601=CARTESIAN_POINT('',(-0.00889,-0.105149020278214,0.05334));
#602=CARTESIAN_POINT('',(-0.01778,-0.105149020278214,0.05334));
#603=CARTESIAN_POINT('',(-0.01778,-0.105149020278214,0.05334));
#604=CARTESIAN_POINT('',(-0.00889,-0.105149020278214,0.05334));
#605=CARTESIAN_POINT('',(-0.01778,-0.114039020278214,0.05334));
#606=CARTESIAN_POINT('',(-0.01778,-0.114039020278214,0.05334));
#607=CARTESIAN_POINT('',(-1.38777878078145E-17,0.0219946000842247,0.05334));
#608=CARTESIAN_POINT('',(-3.46944695195361E-18,-0.0508,-0.33162045855995));
#609=CARTESIAN_POINT('',(-0.0254,-0.0508,-0.33162045855995));
#610=CARTESIAN_POINT('',(0.0254,-0.0508,-0.33162045855995));
#611=CARTESIAN_POINT('',(0.0254,1.38777878078145E-17,-0.33162045855995));
#612=CARTESIAN_POINT('',(0.0254,0.0508,-0.33162045855995));
#613=CARTESIAN_POINT('',(3.46944695195361E-18,0.0508,-0.33162045855995));
#614=CARTESIAN_POINT('',(-0.0254,0.0508,-0.33162045855995));
#615=CARTESIAN_POINT('',(-0.0254,6.93889390390723E-18,-0.33162045855995));
#616=CARTESIAN_POINT('',(0.0383799823655918,-0.0836426761739971,-0.33162045855995));
#617=MECHANICAL_DESIGN_GEOMETRIC_PRESENTATION_REPRESENTATION('',(#374),
#618);
#618=(
GEOMETRIC_REPRESENTATION_CONTEXT(3)
GLOBAL_UNCERTAINTY_ASSIGNED_CONTEXT((#619))
GLOBAL_UNIT_ASSIGNED_CONTEXT((#622,#621,#620))
REPRESENTATION_CONTEXT('Part 1','TOP_LEVEL_ASSEMBLY_PART')
);
#619=UNCERTAINTY_MEASURE_WITH_UNIT(LENGTH_MEASURE(1.E-8),#622,
'DISTANCE_ACCURACY_VALUE','Maximum Tolerance applied to model');
#620=(
NAMED_UNIT(*)
SI_UNIT($,.STERADIAN.)
SOLID_ANGLE_UNIT()
);
#621=(
NAMED_UNIT(*)
PLANE_ANGLE_UNIT()
SI_UNIT($,.RADIAN.)
);
#622=(
LENGTH_UNIT()
NAMED_UNIT(*)
SI_UNIT($,.METRE.)
);
#623=PRODUCT_DEFINITION_SHAPE('','',#624);
#624=PRODUCT_DEFINITION('','',#626,#625);
#625=PRODUCT_DEFINITION_CONTEXT('',#632,'design');
#626=PRODUCT_DEFINITION_FORMATION_WITH_SPECIFIED_SOURCE('','',#628,
 .NOT_KNOWN.);
#627=PRODUCT_RELATED_PRODUCT_CATEGORY('','',(#628));
#628=PRODUCT('Part 1','Part 1','Part 1',(#630));
#629=PRODUCT_CATEGORY('','');
#630=PRODUCT_CONTEXT('',#632,'mechanical');
#631=APPLICATION_PROTOCOL_DEFINITION('international standard',
'ap242_managed_model_based_3d_engineering',2020,#632);
#632=APPLICATION_CONTEXT('managed model based 3d engineering');
ENDSEC;
END-ISO-10303-21;
